<svg xmlns="http://www.w3.org/2000/svg" width="640" height="360" viewBox="0 0 640 360" fill="none">
  <defs>
    <linearGradient id="bg" x1="60" y1="40" x2="580" y2="320" gradientUnits="userSpaceOnUse">
      <stop stop-color="#60A5FA"/>
      <stop offset="0.55" stop-color="#A78BFA"/>
      <stop offset="1" stop-color="#0F172A"/>
    </linearGradient>
    <linearGradient id="key" x1="220" y1="110" x2="460" y2="250" gradientUnits="userSpaceOnUse">
      <stop stop-color="#34D399"/>
      <stop offset="1" stop-color="#22C55E"/>
    </linearGradient>
  </defs>
  <rect x="28" y="24" width="584" height="312" rx="20" fill="url(#bg)" opacity="0.22"/>
  <rect x="104" y="70" width="432" height="220" rx="18" fill="#0B1020" opacity="0.86"/>
  <g opacity="0.9">
    <circle cx="172" cy="136" r="8" fill="#60A5FA"/>
    <circle cx="232" cy="114" r="6" fill="#A78BFA"/>
    <circle cx="286" cy="154" r="7" fill="#34D399"/>
    <circle cx="444" cy="128" r="7" fill="#60A5FA"/>
    <circle cx="404" cy="164" r="6" fill="#A78BFA"/>
    <path d="M172 136L232 114L286 154L404 164L444 128" stroke="#1F2A4A" stroke-width="2" stroke-linecap="round"/>
  </g>
  <g>
    <circle cx="282" cy="206" r="46" fill="#111B35" stroke="#1F2A4A" stroke-width="2"/>
    <circle cx="282" cy="206" r="18" fill="none" stroke="url(#key)" stroke-width="10"/>
    <path d="M316 206H452" stroke="url(#key)" stroke-width="12" stroke-linecap="round"/>
    <path d="M418 206V232" stroke="url(#key)" stroke-width="12" stroke-linecap="round"/>
    <path d="M452 206V224" stroke="url(#key)" stroke-width="12" stroke-linecap="round"/>
  </g>
</svg>

