<svg xmlns="http://www.w3.org/2000/svg" width="640" height="360" viewBox="0 0 640 360" fill="none">
  <defs>
    <linearGradient id="bg" x1="60" y1="40" x2="580" y2="320" gradientUnits="userSpaceOnUse">
      <stop stop-color="#A78BFA"/>
      <stop offset="0.55" stop-color="#6366F1"/>
      <stop offset="1" stop-color="#0F172A"/>
    </linearGradient>
    <linearGradient id="accent" x1="0" y1="0" x2="1" y2="1">
      <stop stop-color="#22C55E"/>
      <stop offset="1" stop-color="#34D399"/>
    </linearGradient>
  </defs>
  <rect x="28" y="24" width="584" height="312" rx="20" fill="url(#bg)" opacity="0.22"/>
  <rect x="110" y="70" width="320" height="220" rx="18" fill="#0B1020" opacity="0.86"/>
  <rect x="140" y="104" width="260" height="18" rx="9" fill="#1F2A4A"/>
  <rect x="140" y="142" width="210" height="18" rx="9" fill="#1F2A4A"/>
  <rect x="140" y="180" width="240" height="18" rx="9" fill="#1F2A4A"/>
  <rect x="140" y="218" width="180" height="18" rx="9" fill="#1F2A4A"/>
  <rect x="140" y="256" width="230" height="18" rx="9" fill="#1F2A4A"/>

  <g>
    <rect x="386" y="142" width="164" height="148" rx="20" fill="#0F172A" stroke="#1F2A4A" stroke-width="2"/>
    <rect x="422" y="206" width="92" height="64" rx="14" fill="#111B35"/>
    <path d="M444 206V188C444 174.745 454.745 164 468 164C481.255 164 492 174.745 492 188V206" stroke="url(#accent)" stroke-width="10" stroke-linecap="round"/>
    <circle cx="468" cy="236" r="10" fill="url(#accent)"/>
    <path d="M468 244V256" stroke="url(#accent)" stroke-width="8" stroke-linecap="round"/>
  </g>
</svg>

